<svg id="svg" version="1.1" xmlns="http://www.w3.org/2000/svg" xmlns:xlink="http://www.w3.org/1999/xlink" width="400" height="122.6" viewBox="0, 0, 400,122.6"><g id="svgg"><path id="path0" d="M297.750 0.173 C 276.832 0.274,273.611 0.377,272.250 0.991 C 272.067 1.074,270.904 1.304,269.667 1.502 C 268.429 1.700,267.342 1.922,267.250 1.995 C 267.158 2.068,266.821 2.180,266.500 2.243 C 265.250 2.490,263.742 2.880,263.583 2.997 C 263.492 3.065,263.192 3.171,262.917 3.233 C 262.087 3.419,260.589 3.889,260.500 3.992 C 260.454 4.045,259.854 4.265,259.167 4.480 C 258.479 4.696,257.834 4.939,257.732 5.020 C 257.630 5.102,257.136 5.310,256.634 5.483 C 256.132 5.655,255.577 5.875,255.402 5.970 C 255.227 6.066,253.826 6.758,252.289 7.508 C 250.753 8.259,249.454 8.940,249.403 9.022 C 249.352 9.104,249.050 9.280,248.732 9.413 C 248.000 9.719,246.549 11.175,246.240 11.914 C 246.111 12.224,245.938 12.519,245.855 12.570 C 245.559 12.753,245.287 14.860,245.393 16.145 C 245.543 17.956,247.213 20.833,248.114 20.833 C 248.226 20.833,248.377 20.932,248.450 21.054 C 249.416 22.649,255.796 21.981,256.917 20.166 C 256.976 20.071,257.862 19.592,258.887 19.101 C 261.687 17.761,262.208 17.530,262.710 17.408 C 262.963 17.347,263.207 17.236,263.252 17.163 C 263.298 17.089,263.991 16.826,264.793 16.578 C 265.594 16.330,266.325 16.072,266.417 16.003 C 266.508 15.935,267.146 15.747,267.833 15.586 C 268.521 15.424,269.496 15.161,270.000 15.001 C 270.504 14.841,271.742 14.580,272.750 14.422 C 273.758 14.264,274.733 14.069,274.917 13.989 C 276.607 13.252,290.580 13.261,292.250 14.000 C 292.433 14.081,293.371 14.273,294.333 14.426 C 295.296 14.580,296.421 14.818,296.833 14.957 C 297.246 15.095,298.258 15.382,299.083 15.593 C 300.663 15.999,303.192 16.846,303.333 17.018 C 303.379 17.073,303.717 17.211,304.083 17.324 C 305.454 17.747,310.611 20.294,312.288 21.378 C 312.676 21.628,313.061 21.833,313.143 21.833 C 313.225 21.833,313.390 21.951,313.510 22.096 C 313.630 22.240,314.009 22.501,314.353 22.677 C 314.697 22.852,315.181 23.184,315.430 23.414 C 315.679 23.645,315.983 23.833,316.106 23.833 C 316.230 23.833,316.424 23.983,316.539 24.167 C 316.653 24.350,316.815 24.500,316.898 24.500 C 317.037 24.500,318.126 25.337,319.451 26.463 C 320.416 27.282,325.403 32.263,326.000 33.002 C 326.321 33.400,326.760 33.918,326.975 34.154 C 327.191 34.390,327.474 34.790,327.604 35.042 C 327.735 35.294,327.901 35.500,327.974 35.500 C 328.046 35.500,328.274 35.800,328.480 36.167 C 328.686 36.533,328.908 36.833,328.972 36.833 C 329.037 36.833,329.275 37.171,329.500 37.583 C 329.725 37.996,329.956 38.333,330.013 38.333 C 330.070 38.333,330.253 38.637,330.420 39.008 C 330.588 39.379,330.805 39.735,330.904 39.800 C 331.003 39.864,331.230 40.217,331.408 40.583 C 331.587 40.950,331.822 41.362,331.931 41.500 C 332.250 41.904,334.232 45.842,334.573 46.750 C 334.745 47.208,334.938 47.621,335.002 47.667 C 335.065 47.712,335.288 48.275,335.497 48.917 C 335.707 49.558,335.935 50.158,336.004 50.250 C 336.074 50.342,336.298 51.017,336.501 51.750 C 336.705 52.483,336.929 53.121,336.999 53.167 C 337.069 53.212,337.300 54.075,337.512 55.083 C 337.724 56.092,337.946 56.954,338.006 57.000 C 338.133 57.098,338.616 59.935,338.771 61.500 C 338.831 62.096,338.941 62.663,339.017 62.760 C 339.436 63.297,339.472 74.877,339.057 75.833 C 338.998 75.971,338.922 76.271,338.890 76.500 C 338.507 79.192,338.095 81.600,338.005 81.667 C 337.944 81.712,337.717 82.575,337.500 83.583 C 337.283 84.592,337.052 85.454,336.987 85.500 C 336.921 85.546,336.695 86.221,336.484 87.000 C 336.274 87.779,336.052 88.454,335.992 88.500 C 335.932 88.546,335.748 88.991,335.585 89.488 C 335.421 89.986,335.077 90.815,334.821 91.331 C 334.565 91.847,334.305 92.471,334.243 92.718 C 334.181 92.965,334.078 93.167,334.015 93.167 C 333.951 93.167,333.763 93.545,333.597 94.008 C 333.430 94.470,333.206 94.939,333.097 95.049 C 332.988 95.160,332.721 95.625,332.503 96.083 C 332.285 96.542,332.064 96.954,332.011 97.000 C 331.959 97.046,331.733 97.421,331.508 97.833 C 331.284 98.246,330.965 98.729,330.800 98.906 C 330.635 99.084,330.500 99.314,330.500 99.417 C 330.500 99.520,330.351 99.764,330.169 99.959 C 329.987 100.155,329.679 100.619,329.485 100.991 C 329.292 101.362,329.082 101.667,329.019 101.667 C 328.956 101.667,328.765 101.910,328.593 102.208 C 328.421 102.506,328.178 102.862,328.054 103.000 C 327.929 103.138,327.407 103.775,326.893 104.417 C 325.091 106.666,323.253 108.612,320.853 110.814 C 320.006 111.590,319.443 112.251,319.326 112.605 C 319.224 112.914,319.078 113.167,319.001 113.167 C 318.288 113.167,318.390 118.222,319.119 118.970 C 319.237 119.091,319.333 119.299,319.333 119.431 C 319.333 119.834,321.277 121.659,322.121 122.049 C 324.280 123.046,328.403 122.432,329.864 120.896 C 330.202 120.541,331.411 119.275,332.551 118.083 C 333.690 116.892,334.914 115.583,335.270 115.175 C 335.626 114.767,336.029 114.305,336.167 114.150 C 336.550 113.715,337.274 112.830,337.923 112.000 C 338.245 111.587,338.650 111.083,338.822 110.879 C 338.994 110.674,339.308 110.227,339.520 109.885 C 339.731 109.542,340.005 109.147,340.128 109.006 C 340.444 108.643,341.833 106.534,341.833 106.417 C 341.833 106.363,341.910 106.229,342.003 106.118 C 342.383 105.669,343.557 103.720,343.706 103.292 C 343.794 103.040,343.918 102.833,343.981 102.833 C 344.045 102.833,344.278 102.421,344.500 101.917 C 344.722 101.412,344.963 101.000,345.035 101.000 C 345.107 101.000,345.167 100.920,345.167 100.823 C 345.167 100.726,345.421 100.107,345.732 99.448 C 347.156 96.428,347.500 95.658,347.500 95.485 C 347.500 95.382,347.676 94.949,347.891 94.521 C 348.105 94.093,348.416 93.332,348.582 92.830 C 348.747 92.328,348.932 91.879,348.993 91.833 C 349.054 91.787,349.282 91.263,349.499 90.667 C 349.716 90.071,349.984 89.433,350.095 89.250 C 350.205 89.067,350.428 88.504,350.589 88.000 C 350.750 87.496,350.935 87.046,351.000 87.000 C 351.064 86.954,351.285 86.429,351.490 85.833 C 351.694 85.237,351.920 84.675,351.991 84.583 C 352.062 84.492,352.255 84.042,352.420 83.583 C 352.585 83.125,352.896 82.354,353.110 81.870 C 353.325 81.386,353.500 80.943,353.500 80.886 C 353.500 80.829,353.713 80.325,353.974 79.766 C 354.235 79.207,354.552 78.394,354.677 77.958 C 354.803 77.523,354.955 77.167,355.014 77.167 C 355.073 77.167,355.292 76.660,355.500 76.042 C 355.708 75.423,355.932 74.879,355.998 74.833 C 356.063 74.787,356.285 74.262,356.490 73.667 C 356.694 73.071,356.918 72.508,356.987 72.417 C 357.056 72.325,357.287 71.762,357.500 71.167 C 357.713 70.571,357.951 70.000,358.028 69.899 C 358.105 69.797,358.310 69.309,358.483 68.815 C 358.656 68.321,358.917 67.692,359.063 67.417 C 359.209 67.142,359.456 66.505,359.612 66.000 C 359.768 65.496,359.943 65.046,360.000 65.000 C 360.058 64.954,360.282 64.429,360.500 63.833 C 360.718 63.237,360.946 62.712,361.007 62.667 C 361.068 62.621,361.250 62.171,361.411 61.667 C 361.572 61.163,361.795 60.600,361.905 60.417 C 362.016 60.233,362.284 59.596,362.501 59.000 C 362.718 58.404,362.946 57.879,363.007 57.833 C 363.068 57.788,363.253 57.339,363.418 56.837 C 363.584 56.334,363.885 55.584,364.087 55.170 C 364.290 54.756,364.557 54.060,364.681 53.625 C 364.805 53.190,364.959 52.833,365.023 52.833 C 365.087 52.833,365.307 52.327,365.511 51.708 C 365.716 51.090,365.936 50.546,366.000 50.500 C 366.064 50.454,366.289 49.892,366.500 49.250 C 366.711 48.608,366.936 48.046,367.000 48.000 C 367.065 47.954,367.285 47.429,367.490 46.833 C 367.694 46.237,367.921 45.675,367.994 45.583 C 368.067 45.492,368.298 44.929,368.508 44.333 C 368.718 43.737,368.946 43.174,369.016 43.081 C 369.085 42.989,369.296 42.501,369.484 41.998 C 369.672 41.495,369.978 40.786,370.163 40.423 C 370.348 40.060,370.500 39.658,370.500 39.531 C 370.500 39.403,370.676 38.949,370.891 38.521 C 371.105 38.093,371.416 37.332,371.582 36.830 C 371.747 36.328,371.935 35.879,372.000 35.833 C 372.064 35.787,372.285 35.262,372.490 34.667 C 372.694 34.071,372.921 33.508,372.994 33.417 C 373.067 33.325,373.300 32.762,373.512 32.167 C 373.724 31.571,373.947 31.046,374.008 31.000 C 374.068 30.954,374.250 30.504,374.412 30.000 C 374.574 29.496,374.801 28.858,374.916 28.583 C 375.263 27.752,375.474 26.826,375.673 25.250 C 375.777 24.425,375.937 23.485,376.029 23.162 C 376.355 22.012,375.560 15.483,375.004 14.750 C 374.935 14.658,374.712 14.077,374.509 13.458 C 374.306 12.840,374.071 12.333,373.986 12.333 C 373.902 12.333,373.833 12.254,373.833 12.158 C 373.833 11.923,373.157 10.439,373.002 10.333 C 372.935 10.287,372.764 10.025,372.623 9.750 C 371.101 6.789,366.074 2.574,362.667 1.402 C 362.162 1.228,361.712 1.044,361.667 0.993 C 361.503 0.811,360.175 0.493,358.559 0.250 C 356.775 -0.019,341.515 -0.039,297.750 0.173 " stroke="none" fill="#f49c13" fill-rule="evenodd"></path><path id="path1" d="M19.583 39.850 C 18.758 39.925,17.821 40.064,17.500 40.157 C 17.179 40.251,16.242 40.447,15.417 40.593 C 14.592 40.739,13.692 40.959,13.417 41.081 C 13.142 41.204,12.504 41.435,12.000 41.596 C 9.179 42.494,4.180 46.012,4.169 47.107 C 4.168 47.212,4.070 47.335,3.951 47.380 C 3.674 47.487,2.284 50.278,1.845 51.610 C 0.929 54.390,1.043 61.801,2.008 62.139 C 2.095 62.169,2.167 62.289,2.167 62.405 C 2.167 63.941,6.023 67.691,8.781 68.836 C 9.222 69.019,9.771 69.271,10.000 69.396 C 10.229 69.521,10.829 69.755,11.333 69.917 C 11.838 70.079,12.325 70.268,12.417 70.339 C 12.508 70.409,13.296 70.638,14.167 70.848 C 15.037 71.058,15.787 71.279,15.833 71.338 C 15.879 71.398,16.817 71.615,17.917 71.820 C 19.017 72.026,20.067 72.260,20.250 72.339 C 20.433 72.419,21.408 72.641,22.417 72.833 C 23.425 73.025,24.400 73.251,24.583 73.336 C 24.767 73.420,25.629 73.651,26.500 73.848 C 27.371 74.045,28.158 74.263,28.250 74.333 C 28.342 74.402,28.979 74.632,29.667 74.844 C 30.354 75.056,30.957 75.288,31.006 75.358 C 31.055 75.429,31.384 75.608,31.737 75.755 C 34.795 77.033,36.042 79.902,34.706 82.586 C 34.175 83.653,33.233 84.833,32.912 84.833 C 32.805 84.833,32.589 84.976,32.431 85.151 C 32.273 85.325,31.680 85.637,31.114 85.844 C 30.547 86.051,30.008 86.277,29.917 86.345 C 28.403 87.472,19.948 86.638,18.531 85.222 C 18.405 85.096,18.103 84.889,17.859 84.762 C 16.544 84.080,14.795 81.398,14.589 79.750 C 14.532 79.292,14.448 78.673,14.402 78.375 L 14.318 77.833 7.134 77.833 L -0.050 77.833 0.050 79.458 C 0.178 81.523,0.508 83.078,1.168 84.728 C 1.790 86.281,2.803 88.167,3.015 88.167 C 3.099 88.167,3.167 88.260,3.167 88.375 C 3.169 88.946,6.433 92.046,8.159 93.117 C 9.965 94.237,13.276 95.619,15.083 96.007 C 15.633 96.125,16.159 96.278,16.251 96.348 C 17.584 97.347,31.199 97.398,34.458 96.416 C 34.894 96.284,35.813 96.032,36.500 95.855 C 37.791 95.522,40.060 94.708,40.500 94.419 C 40.637 94.329,41.087 94.084,41.500 93.874 C 43.256 92.982,45.597 91.176,46.440 90.063 C 46.702 89.717,47.085 89.250,47.292 89.026 C 47.498 88.802,47.667 88.559,47.667 88.488 C 47.667 88.416,47.777 88.247,47.912 88.111 C 48.325 87.699,49.482 85.139,49.695 84.167 C 49.806 83.662,49.946 83.212,50.007 83.167 C 50.627 82.702,50.632 74.712,50.013 73.922 C 49.938 73.828,49.744 73.341,49.580 72.840 C 48.283 68.865,43.529 65.475,36.750 63.689 C 35.833 63.448,35.008 63.204,34.917 63.147 C 34.825 63.091,33.813 62.869,32.667 62.654 C 31.521 62.439,30.546 62.214,30.500 62.154 C 30.454 62.095,29.404 61.873,28.167 61.662 C 26.929 61.451,25.879 61.225,25.833 61.161 C 25.787 61.097,24.962 60.875,24.000 60.669 C 23.037 60.462,22.175 60.240,22.083 60.175 C 21.992 60.110,21.433 59.884,20.842 59.674 C 20.251 59.464,19.665 59.188,19.539 59.062 C 19.413 58.936,19.210 58.833,19.089 58.833 C 17.299 58.833,15.542 53.718,16.973 52.670 C 17.038 52.622,17.225 52.373,17.389 52.116 C 17.552 51.859,17.813 51.602,17.968 51.544 C 18.123 51.486,18.438 51.304,18.667 51.140 C 18.896 50.975,19.608 50.716,20.250 50.565 C 20.892 50.413,21.547 50.224,21.706 50.145 C 21.865 50.065,23.073 50.000,24.390 50.000 C 30.400 50.000,33.913 52.233,34.421 56.377 L 34.539 57.337 41.811 57.293 L 49.083 57.250 49.136 56.792 C 49.165 56.540,49.109 56.333,49.011 56.333 C 48.913 56.333,48.832 56.052,48.830 55.708 C 48.825 54.967,48.235 52.204,48.024 51.937 C 47.943 51.834,47.783 51.450,47.669 51.083 C 46.911 48.658,43.989 45.093,41.518 43.582 C 40.163 42.753,38.025 41.722,37.222 41.511 C 36.840 41.410,36.323 41.222,36.072 41.092 C 35.821 40.961,34.896 40.732,34.016 40.582 C 33.137 40.431,32.267 40.241,32.083 40.159 C 31.108 39.723,23.118 39.525,19.583 39.850 M76.667 39.852 C 75.979 39.930,75.267 40.061,75.083 40.143 C 74.900 40.224,74.075 40.420,73.250 40.578 C 72.425 40.736,71.525 40.964,71.250 41.084 C 70.975 41.205,70.337 41.435,69.833 41.595 C 69.329 41.755,68.152 42.281,67.217 42.765 C 65.709 43.543,64.911 44.049,62.948 45.467 C 60.891 46.954,57.410 51.237,56.420 53.500 C 56.240 53.913,56.040 54.288,55.975 54.335 C 55.911 54.382,55.699 54.870,55.504 55.419 C 55.309 55.968,55.076 56.550,54.987 56.713 C 54.800 57.054,54.070 59.611,53.740 61.078 C 52.902 64.807,53.066 75.239,53.990 76.963 C 54.075 77.121,54.266 77.770,54.415 78.404 C 54.563 79.039,54.822 79.864,54.989 80.238 C 55.157 80.611,55.351 81.104,55.421 81.333 C 56.282 84.153,59.991 89.131,62.917 91.395 C 63.467 91.821,63.999 92.236,64.099 92.317 C 65.463 93.422,69.784 95.451,71.917 95.988 C 72.375 96.103,72.900 96.260,73.083 96.336 C 74.787 97.043,82.202 97.429,85.838 97.000 C 87.732 96.777,89.379 96.484,89.583 96.333 C 89.675 96.266,90.162 96.115,90.667 95.998 C 92.410 95.593,94.486 94.689,97.542 93.003 C 98.069 92.713,98.500 92.418,98.500 92.348 C 98.500 92.277,98.677 92.139,98.894 92.041 C 99.690 91.678,103.572 87.894,103.762 87.296 C 103.814 87.133,103.921 87.000,104.001 87.000 C 104.080 87.000,104.314 86.700,104.520 86.333 C 104.726 85.967,104.943 85.667,105.002 85.667 C 105.061 85.667,105.285 85.292,105.500 84.833 C 105.715 84.375,105.952 84.000,106.028 84.000 C 106.104 84.000,106.167 83.923,106.167 83.829 C 106.167 83.735,106.419 83.147,106.728 82.522 C 107.036 81.898,107.421 80.981,107.583 80.485 C 107.745 79.989,107.933 79.508,108.001 79.417 C 108.069 79.325,108.293 78.500,108.500 77.583 C 108.706 76.667,108.937 75.767,109.012 75.583 C 109.702 73.899,109.796 64.627,109.149 62.083 C 109.055 61.717,108.872 60.929,108.741 60.333 C 108.389 58.728,108.130 57.771,107.996 57.583 C 107.931 57.492,107.707 56.892,107.497 56.250 C 107.288 55.608,107.066 55.046,107.003 55.000 C 106.940 54.954,106.800 54.660,106.692 54.345 C 106.522 53.847,106.160 53.183,105.369 51.917 C 104.489 50.509,104.208 50.091,103.917 49.756 C 103.733 49.545,103.358 49.086,103.083 48.734 C 102.089 47.464,98.549 44.333,98.108 44.333 C 98.041 44.333,97.831 44.189,97.641 44.012 C 97.219 43.619,93.506 41.777,92.583 41.503 C 92.217 41.394,91.692 41.205,91.417 41.084 C 91.142 40.962,90.242 40.737,89.417 40.583 C 88.592 40.430,87.767 40.238,87.583 40.157 C 86.578 39.714,79.594 39.519,76.667 39.852 M197.255 39.844 C 196.800 39.921,196.275 40.055,196.088 40.144 C 195.902 40.233,195.375 40.391,194.917 40.497 C 194.458 40.602,193.708 40.863,193.250 41.076 C 192.792 41.290,192.154 41.585,191.833 41.732 C 190.266 42.449,188.634 43.610,187.008 45.167 C 186.157 45.982,184.500 47.898,184.500 48.067 C 184.500 48.125,184.242 48.564,183.926 49.044 C 183.611 49.524,183.302 50.124,183.241 50.377 C 182.930 51.663,182.833 50.633,182.833 46.010 L 182.833 41.000 175.684 41.000 C 169.319 41.000,168.525 41.029,168.434 41.264 C 168.302 41.608,168.302 95.225,168.434 95.570 C 168.525 95.805,169.355 95.833,176.091 95.833 L 183.646 95.833 183.698 81.542 C 183.736 71.178,183.803 67.158,183.941 66.917 C 184.046 66.733,184.258 65.871,184.412 65.000 C 184.566 64.129,184.797 63.192,184.925 62.917 C 185.053 62.642,185.272 62.089,185.412 61.689 C 186.510 58.538,190.070 55.369,193.417 54.565 C 194.058 54.411,194.764 54.202,194.984 54.101 C 195.590 53.822,201.892 53.869,202.236 54.155 C 202.381 54.275,202.500 54.333,202.500 54.282 C 202.500 54.231,202.740 54.259,203.033 54.343 C 203.417 54.453,203.603 54.438,203.697 54.290 C 203.863 54.029,203.871 40.482,203.706 40.230 C 203.381 39.733,199.359 39.493,197.255 39.844 M225.000 39.853 C 224.313 39.932,223.563 40.068,223.333 40.154 C 223.104 40.240,222.279 40.434,221.500 40.585 C 220.721 40.736,219.858 40.959,219.583 41.081 C 219.308 41.204,218.661 41.456,218.144 41.642 C 217.628 41.829,216.540 42.332,215.728 42.761 C 214.915 43.190,214.044 43.650,213.792 43.783 C 213.540 43.916,213.333 44.080,213.333 44.148 C 213.333 44.216,213.090 44.391,212.792 44.536 C 211.787 45.028,208.182 48.539,207.354 49.833 C 207.208 50.063,206.991 50.351,206.873 50.474 C 206.755 50.597,206.539 50.935,206.393 51.224 C 206.246 51.513,206.034 51.862,205.921 52.000 C 204.774 53.399,202.871 58.390,202.299 61.500 C 202.122 62.462,201.914 63.587,201.835 64.000 C 201.402 66.277,201.518 74.306,201.993 74.917 C 202.064 75.008,202.171 75.465,202.230 75.932 C 202.352 76.889,202.760 78.581,202.991 79.083 C 203.075 79.267,203.232 79.717,203.340 80.083 C 204.376 83.592,207.588 88.254,210.917 91.080 C 212.829 92.703,217.034 95.167,217.892 95.167 C 218.043 95.167,218.167 95.231,218.167 95.310 C 218.167 95.389,218.785 95.620,219.542 95.824 C 220.298 96.027,221.035 96.255,221.179 96.330 C 223.130 97.343,236.070 97.351,237.417 96.340 C 237.508 96.272,238.104 96.087,238.741 95.931 C 239.378 95.774,240.315 95.458,240.824 95.228 C 242.209 94.601,244.239 93.596,244.333 93.490 C 244.379 93.439,244.952 93.041,245.607 92.605 C 247.355 91.442,250.833 87.950,250.833 87.358 C 250.833 87.253,250.895 87.167,250.969 87.167 C 251.044 87.167,251.282 86.848,251.499 86.458 C 251.715 86.069,251.939 85.712,251.997 85.667 C 252.153 85.543,253.453 82.816,253.586 82.333 C 253.650 82.104,253.798 81.763,253.916 81.576 C 254.033 81.388,254.322 80.488,254.556 79.576 C 254.791 78.663,255.055 77.677,255.144 77.384 C 255.232 77.091,255.358 76.360,255.422 75.759 L 255.539 74.667 248.126 74.667 L 240.712 74.667 240.506 75.958 C 240.393 76.669,240.120 77.646,239.900 78.130 C 239.680 78.614,239.500 79.084,239.500 79.176 C 239.500 80.670,235.319 84.491,233.119 85.007 C 232.641 85.119,232.145 85.294,232.016 85.397 C 231.114 86.116,224.305 85.249,223.667 84.333 C 223.621 84.267,223.358 84.094,223.083 83.949 C 221.448 83.086,219.031 79.804,218.334 77.500 C 218.209 77.087,218.053 76.675,217.988 76.583 C 217.858 76.401,217.437 74.535,217.141 72.833 C 216.881 71.339,216.768 65.832,216.993 65.607 C 217.088 65.512,217.167 65.179,217.167 64.868 C 217.167 64.201,217.779 61.103,217.991 60.697 C 218.072 60.543,218.305 59.929,218.508 59.333 C 218.712 58.737,219.019 58.071,219.189 57.853 C 219.360 57.634,219.500 57.375,219.500 57.276 C 219.500 56.752,221.553 54.293,222.750 53.385 C 226.319 50.674,232.978 50.640,236.393 53.315 C 237.736 54.366,239.111 56.421,239.585 58.084 C 239.742 58.634,239.937 59.155,240.018 59.242 C 240.100 59.329,240.167 59.566,240.167 59.770 C 240.167 60.718,239.729 60.667,247.754 60.667 C 253.052 60.667,255.156 60.614,255.201 60.480 C 255.348 60.039,254.438 55.165,254.088 54.515 C 253.960 54.277,253.724 53.708,253.563 53.250 C 252.472 50.134,249.488 46.475,246.348 44.402 C 244.819 43.393,244.391 43.141,243.500 42.725 C 242.996 42.489,242.212 42.117,241.759 41.898 C 241.306 41.679,240.818 41.500,240.676 41.499 C 240.533 41.498,240.217 41.394,239.973 41.267 C 239.477 41.008,237.806 40.569,236.667 40.400 C 236.254 40.338,235.842 40.231,235.750 40.162 C 235.186 39.735,227.863 39.525,225.000 39.853 M280.417 39.855 C 279.775 39.936,279.063 40.071,278.833 40.155 C 278.604 40.240,277.817 40.434,277.083 40.588 C 276.350 40.741,275.525 40.965,275.250 41.086 C 274.975 41.206,274.450 41.395,274.083 41.506 C 273.717 41.617,273.154 41.844,272.833 42.012 C 272.512 42.179,271.912 42.473,271.500 42.666 C 269.391 43.648,267.598 44.938,265.073 47.287 C 262.927 49.284,259.167 54.958,259.167 56.200 C 259.167 56.365,259.103 56.500,259.024 56.500 C 258.946 56.500,258.717 57.081,258.516 57.792 C 258.315 58.502,258.087 59.200,258.010 59.343 C 257.235 60.783,256.527 67.409,256.796 70.707 C 257.049 73.807,257.648 77.485,258.009 78.154 C 258.086 78.299,258.315 78.998,258.516 79.708 C 258.717 80.419,258.946 81.000,259.024 81.000 C 259.103 81.000,259.167 81.103,259.167 81.229 C 259.167 81.493,259.826 83.042,259.991 83.167 C 260.052 83.212,260.208 83.510,260.336 83.828 C 260.585 84.442,262.463 87.303,263.061 87.978 C 263.604 88.592,265.894 90.873,266.348 91.253 C 267.363 92.102,270.287 93.982,270.788 94.108 C 270.996 94.160,271.167 94.259,271.167 94.329 C 271.167 94.398,271.523 94.588,271.958 94.750 C 272.394 94.912,273.050 95.177,273.417 95.338 C 273.783 95.499,274.571 95.757,275.167 95.912 C 275.762 96.066,276.379 96.261,276.537 96.345 C 277.745 96.986,285.514 97.389,289.212 97.002 C 298.702 96.009,306.935 89.484,309.612 80.833 C 309.768 80.329,309.947 79.879,310.010 79.833 C 310.073 79.787,310.178 79.506,310.242 79.208 L 310.360 78.667 303.534 78.667 L 296.708 78.667 296.615 79.132 C 296.198 81.219,292.903 83.861,289.167 85.105 C 287.600 85.627,282.564 85.822,281.650 85.397 C 281.430 85.295,280.650 85.045,279.917 84.843 C 279.183 84.640,278.471 84.377,278.333 84.257 C 278.196 84.138,277.850 83.922,277.564 83.777 C 276.022 82.997,273.974 80.529,273.395 78.752 C 273.245 78.293,273.064 77.842,272.993 77.750 C 272.777 77.473,272.345 75.130,272.228 73.602 L 272.117 72.167 291.749 72.167 L 311.381 72.167 311.296 68.216 C 311.238 65.484,311.153 64.246,311.023 64.202 C 310.918 64.167,310.833 63.886,310.833 63.578 C 310.833 62.888,310.203 59.568,310.001 59.191 C 309.920 59.040,309.692 58.354,309.494 57.667 C 309.296 56.979,309.076 56.342,309.006 56.250 C 308.935 56.158,308.783 55.793,308.669 55.439 C 308.339 54.414,306.377 50.738,306.046 50.523 C 305.955 50.465,305.777 50.217,305.649 49.972 C 305.024 48.777,301.060 44.716,300.179 44.369 C 300.049 44.318,299.817 44.157,299.664 44.013 C 299.210 43.584,296.661 42.144,295.667 41.755 C 293.662 40.970,292.795 40.688,291.833 40.507 C 291.237 40.395,290.600 40.237,290.417 40.155 C 289.407 39.705,283.118 39.516,280.417 39.855 M112.910 41.208 C 112.727 41.687,112.943 78.274,113.139 80.000 C 113.393 82.237,113.805 84.617,114.000 84.973 C 114.084 85.125,114.273 85.692,114.421 86.231 C 115.642 90.693,119.869 94.970,124.092 96.016 C 124.546 96.129,124.954 96.269,125.000 96.329 C 125.795 97.361,137.923 97.371,139.250 96.341 C 139.342 96.269,139.923 96.045,140.542 95.842 C 141.160 95.639,141.667 95.404,141.667 95.320 C 141.667 95.236,141.798 95.163,141.958 95.159 C 142.232 95.153,142.614 94.946,144.010 94.048 C 144.620 93.656,144.806 93.511,146.208 92.333 C 147.193 91.506,148.440 90.110,149.184 89.002 L 149.667 88.283 149.667 92.058 L 149.667 95.833 157.000 95.833 L 164.334 95.833 164.292 68.458 L 164.250 41.083 156.769 41.040 C 151.531 41.010,149.222 41.051,149.068 41.179 C 148.889 41.328,148.837 44.488,148.786 58.056 C 148.722 75.363,148.676 76.520,148.003 77.917 C 147.914 78.100,147.681 78.691,147.484 79.229 C 146.439 82.093,143.782 84.302,140.750 84.829 C 137.876 85.328,134.268 84.989,132.837 84.085 C 132.472 83.855,132.130 83.667,132.077 83.667 C 131.957 83.667,130.704 82.342,130.232 81.717 C 130.038 81.460,129.707 80.762,129.495 80.167 C 129.283 79.571,129.059 79.008,128.996 78.917 C 128.348 77.975,128.215 74.320,128.187 56.773 C 128.174 48.261,128.122 41.229,128.072 41.148 C 127.918 40.899,113.005 40.959,112.910 41.208 M85.083 51.740 C 88.365 52.621,91.462 55.489,92.593 58.694 C 92.728 59.076,92.905 59.469,92.988 59.569 C 93.071 59.669,93.303 60.575,93.504 61.584 C 93.705 62.592,93.955 63.597,94.060 63.817 C 94.324 64.373,94.323 72.630,94.058 73.183 C 93.953 73.403,93.736 74.258,93.577 75.083 C 93.418 75.908,93.161 76.883,93.007 77.250 C 92.852 77.617,92.586 78.254,92.415 78.667 C 92.244 79.079,92.015 79.529,91.905 79.667 C 91.796 79.804,91.593 80.142,91.454 80.417 C 88.474 86.298,77.847 87.456,72.825 82.446 C 72.025 81.648,70.500 79.529,70.500 79.215 C 70.500 79.140,70.338 78.780,70.141 78.414 C 69.715 77.627,69.074 75.443,68.722 73.583 C 68.243 71.054,68.437 62.453,68.983 62.000 C 69.038 61.954,69.253 61.246,69.459 60.426 C 69.666 59.606,69.895 58.893,69.968 58.843 C 70.041 58.792,70.235 58.392,70.399 57.955 C 70.562 57.518,70.793 57.065,70.910 56.947 C 71.027 56.830,71.238 56.512,71.379 56.242 C 71.636 55.748,73.249 54.009,73.967 53.452 C 75.110 52.567,77.205 51.715,78.917 51.442 C 79.964 51.274,84.091 51.474,85.083 51.740 M287.214 51.576 C 290.072 52.086,292.180 53.559,293.709 56.114 C 294.028 56.647,294.424 57.458,294.590 57.917 C 294.755 58.375,294.944 58.825,295.008 58.917 C 295.133 59.094,295.574 60.830,295.759 61.875 L 295.870 62.500 284.019 62.500 L 272.167 62.500 272.167 62.076 C 272.167 60.786,273.418 56.930,273.976 56.500 C 274.036 56.454,274.289 56.117,274.540 55.750 C 276.916 52.272,281.903 50.630,287.214 51.576 " stroke="none" fill="#646464" fill-rule="evenodd"></path><path id="path2" d="M385.167 14.333 L 385.167 15.167 386.250 15.167 L 387.333 15.167 387.333 18.583 L 387.333 22.000 388.083 22.000 L 388.833 22.000 388.833 18.583 L 388.833 15.167 389.736 15.167 C 391.045 15.167,391.167 15.087,391.167 14.232 L 391.167 13.500 388.167 13.500 L 385.167 13.500 385.167 14.333 M392.167 17.750 L 392.167 22.000 392.917 22.000 L 393.667 22.000 393.667 19.738 C 393.667 17.214,393.769 17.108,394.499 18.875 C 394.717 19.402,394.947 19.833,395.011 19.833 C 395.075 19.833,395.167 19.983,395.215 20.167 C 395.358 20.713,396.624 20.645,396.765 20.083 C 396.822 19.854,396.925 19.667,396.993 19.667 C 397.061 19.667,397.295 19.217,397.514 18.667 C 398.080 17.241,398.167 17.395,398.167 19.833 L 398.167 22.000 398.917 22.000 L 399.667 22.000 399.667 17.741 L 399.667 13.482 398.892 13.533 C 398.416 13.564,398.066 13.680,397.983 13.833 C 397.672 14.414,396.530 16.966,396.324 17.542 C 396.024 18.377,395.938 18.338,395.500 17.167 C 395.294 16.617,395.060 16.167,394.980 16.167 C 394.899 16.167,394.833 16.087,394.833 15.991 C 394.833 15.894,394.591 15.294,394.294 14.657 L 393.755 13.500 392.961 13.500 L 392.167 13.500 392.167 17.750 M128.247 56.750 C 128.247 65.275,128.267 68.738,128.292 64.446 C 128.316 60.153,128.316 53.178,128.292 48.946 C 128.267 44.713,128.247 48.225,128.247 56.750 M60.742 47.375 L 60.083 48.083 60.792 47.425 C 61.450 46.812,61.577 46.667,61.450 46.667 C 61.423 46.667,61.105 46.985,60.742 47.375 " stroke="none" fill="#040404" fill-rule="evenodd"></path><path id="path3" d="" stroke="none" fill="#d8a034" fill-rule="evenodd"></path><path id="path4" d="" stroke="none" fill="#708434" fill-rule="evenodd"></path></g></svg>