<?xml version="1.0" encoding="UTF-8"?>
<svg width="390px" height="219px" viewBox="0 0 390 219" version="1.1" xmlns="http://www.w3.org/2000/svg" xmlns:xlink="http://www.w3.org/1999/xlink">
    <!-- Generator: Sketch 49 (51002) - http://www.bohemiancoding.com/sketch -->
    <title>woltlab-suite-3</title>
    <desc>Created with Sketch.</desc>
    <defs>
        <linearGradient x1="0%" y1="68.6259925%" x2="100%" y2="68.6259925%" id="linearGradient-1">
            <stop stop-color="#140B00" offset="0%"></stop>
            <stop stop-color="#0D1B25" offset="10.7723571%"></stop>
            <stop stop-color="#01396F" offset="26.2558193%"></stop>
            <stop stop-color="#0076AD" offset="44.8183219%"></stop>
            <stop stop-color="#0090C4" offset="61.4983481%"></stop>
            <stop stop-color="#00CDF9" offset="74.4789869%"></stop>
            <stop stop-color="#00AADB" offset="100%"></stop>
        </linearGradient>
        <radialGradient cx="65.367955%" cy="74.3219446%" fx="65.367955%" fy="74.3219446%" r="47.9776806%" gradientTransform="translate(0.653680,0.743219),scale(0.638261,1.000000),rotate(90.000000),scale(1.000000,1.013113),translate(-0.653680,-0.743219)" id="radialGradient-2">
            <stop stop-color="#FFFFFF" stop-opacity="0.49" offset="0%"></stop>
            <stop stop-color="#FFFFFF" stop-opacity="0" offset="100%"></stop>
        </radialGradient>
        <path d="M64.9541016,147.070312 C78.4814453,170.30957 101.363281,210.972656 124.145508,213.547852 C146.927734,216.123047 160.836914,200.222656 175.570313,183.935547 C190.303711,167.648438 206.203125,144.597656 219.90332,144.597656 C233.603516,144.597656 248.318359,165.422852 259.666016,179.50293 C271.013672,193.583008 281.464844,204.265625 292.342773,209.435547 C303.220703,214.605469 273.083008,113.189453 259.666016,98.8027344 C246.249023,84.4160156 235.755859,65.5205078 216.306641,65.5205078 C196.857422,65.5205078 186.689453,76.4931641 166.99707,97.03125 C147.304687,117.569336 119.983398,157.138672 106.762695,157.138672 C93.5419922,157.138672 51.4267578,123.831055 64.9541016,147.070312 Z" id="path-3"></path>
        <linearGradient x1="6.96865693%" y1="100%" x2="6.96865693%" y2="0%" id="linearGradient-4">
            <stop stop-color="#008DC1" stop-opacity="0" offset="0%"></stop>
            <stop stop-color="#0073A7" stop-opacity="0" offset="30.217284%"></stop>
            <stop stop-color="#003465" offset="100%"></stop>
        </linearGradient>
        <linearGradient x1="12.6315789%" y1="100%" x2="97.469655%" y2="0%" id="linearGradient-5">
            <stop stop-color="#005487" offset="0%"></stop>
            <stop stop-color="#005A8F" offset="24.828396%"></stop>
            <stop stop-color="#0066A2" offset="52.3798772%"></stop>
            <stop stop-color="#6FD6FF" offset="81.9115788%"></stop>
            <stop stop-color="#AFE8FF" offset="100%"></stop>
        </linearGradient>
        <linearGradient x1="0%" y1="33.7182355%" x2="100%" y2="33.7182343%" id="linearGradient-6">
            <stop stop-color="#E36A00" offset="0%"></stop>
            <stop stop-color="#D45400" offset="17.7736361%"></stop>
            <stop stop-color="#F88900" offset="29.0184864%"></stop>
            <stop stop-color="#FFA800" offset="37.9290101%"></stop>
            <stop stop-color="#FBCA40" offset="52.8916183%"></stop>
            <stop stop-color="#9ABD00" offset="73.6452565%"></stop>
            <stop stop-color="#63A304" offset="100%"></stop>
        </linearGradient>
        <radialGradient cx="45.6113024%" cy="29.4230557%" fx="45.6113024%" fy="29.4230557%" r="38.1296975%" gradientTransform="translate(0.456113,0.294231),scale(0.407876,1.000000),rotate(70.317181),translate(-0.456113,-0.294231)" id="radialGradient-7">
            <stop stop-color="#FFFFFF" stop-opacity="0.67" offset="0%"></stop>
            <stop stop-color="#FFFFFF" stop-opacity="0" offset="100%"></stop>
        </radialGradient>
        <path d="M5.45507812,112.973633 C10.3333333,105.278971 16.3369141,101.431641 23.4658203,101.431641 C34.1591797,101.431641 51.4267578,123.831055 64.9541016,147.070313 C78.4814453,170.30957 86.8193359,184.826172 103.484375,186.166992 C120.149414,187.507813 136.390625,166.385742 148.34668,140.325195 C160.302734,114.264648 177.470703,85.9208984 191.170898,85.9208984 C204.871094,85.9208984 222.657227,101.431641 241.612305,142.775391 C260.567383,184.119141 281.464844,204.265625 292.342773,209.435547 C303.220703,214.605469 314.914063,215.813477 327.633789,209.435547 C340.353516,203.057617 350.195313,197.104492 364.476563,167.648438 C378.757812,138.192383 384.395899,114 384.395899,72.6380654 C378.545898,105.738281 367.865234,156.319336 335.06543,156.319336 C302.265625,156.319336 277.916016,101.740234 264.499023,87.3535156 C251.082031,72.9667969 237.097656,59.2167969 217.648438,59.2167969 C198.199219,59.2167969 182.783203,73.3203125 163.09082,93.8583984 C143.398437,114.396484 134.041992,129.381836 120.821289,129.381836 C107.600586,129.381836 98.2080078,121.538086 79.0693359,105.738281 C59.9306641,89.9384766 50.984375,84.4873047 39.59375,84.4873047 C28.203125,84.4873047 21.2929688,90.1357422 16.296875,96.0078125 C12.9661458,99.922526 9.35221354,105.577799 5.45507812,112.973633 Z" id="path-8"></path>
        <linearGradient x1="29.5957587%" y1="88.9223028%" x2="98.4781189%" y2="46.0478833%" id="linearGradient-9">
            <stop stop-color="#BBD100" offset="0%"></stop>
            <stop stop-color="#F5E500" offset="100%"></stop>
        </linearGradient>
        <linearGradient x1="18.1190945%" y1="65.9989655%" x2="100%" y2="65.9989676%" id="linearGradient-10">
            <stop stop-color="#7A9D00" stop-opacity="0.92" offset="0%"></stop>
            <stop stop-color="#7D9F00" stop-opacity="0.85" offset="39.3184534%"></stop>
            <stop stop-color="#C3D400" stop-opacity="0" offset="100%"></stop>
        </linearGradient>
        <linearGradient x1="-12.1325644%" y1="111.102036%" x2="100%" y2="-3.73206284%" id="linearGradient-11">
            <stop stop-color="#EF7E07" offset="0%"></stop>
            <stop stop-color="#EC9445" offset="22.8233382%"></stop>
            <stop stop-color="#FEF3E4" offset="43.9532153%"></stop>
            <stop stop-color="#FFCF56" offset="69.4906069%"></stop>
            <stop stop-color="#FFD25E" offset="100%"></stop>
        </linearGradient>
    </defs>
    <g id="Page-1" stroke="none" stroke-width="1" fill="none" fill-rule="evenodd">
        <g id="Path">
            <use fill="url(#linearGradient-1)" xlink:href="#path-3"></use>
            <use fill="url(#radialGradient-2)" xlink:href="#path-3"></use>
        </g>
        <path d="M201.798828,154.526367 C208.196566,148.652816 214.825148,144.597656 219.90332,144.597656 C233.603516,144.597656 248.318359,165.422852 259.666016,179.50293 C271.013672,193.583008 281.464844,204.265625 292.342773,209.435547 C283.671046,204.329966 269.15332,191.097924 258.079102,174.262695 C238.56543,144.597656 228.180664,119.442383 216.587891,105.738281 C207.341024,94.8073332 195.414063,82.6279297 184.788086,89.5761719 C196.173828,89.5761719 201.798828,94.4760742 200.821289,105.738281 C199.969221,115.554942 199.366566,127.374766 194.124512,144.597656 C188.425544,163.321745 195.799994,160.033697 201.798828,154.526367 Z" id="Path-Copy" fill="url(#linearGradient-4)"></path>
        <path d="M191.743164,86.0761719 C187.65918,86.0761719 179.098633,88.5830078 170.173828,106.260742 C161.249023,123.938477 152.700195,140.078125 147.089844,150.494141 C141.479492,160.910156 131.731445,176.328125 120.232422,182.994141 C112.566406,187.438151 104.245117,187.795247 95.2685547,184.06543 C110.142904,187.343424 122.679362,181.185872 132.87793,165.592773 C148.175781,142.203125 155.886719,123.020508 163.321289,110.251953 C170.755859,97.4833984 180.491211,83.9511719 191.743164,86.0761719 Z" id="Path-3" fill="url(#linearGradient-5)"></path>
        <g id="Path-Copy-3">
            <use fill="url(#linearGradient-6)" xlink:href="#path-8"></use>
            <use fill="url(#radialGradient-7)" xlink:href="#path-8"></use>
        </g>
        <path d="M290.976562,126.371094 C300.447266,137.831055 313.262695,156.395508 336.923828,156.395508 C360.584961,156.395508 374.532227,129.868164 379.818359,106.114258 C385.104492,82.3603516 385.993164,62.8935547 379.818359,42.5947266 C373.643555,22.2958984 366.819336,18.0087891 360.584961,12.921875 C354.350586,7.83496094 346.213867,5.39355469 336.923828,5.39355469 C327.633789,5.39355469 315.011719,13.5263672 312.095703,19.1621094 C309.179687,24.7978516 307.539062,28.7363281 309.053711,36.9863281 C310.568359,45.2363281 322.746094,56.9423828 327.633789,62.8935547 C332.521484,68.8447266 340.209961,77.2109375 340.209961,92.2089844 C340.209961,107.207031 330.117187,123.831055 312.095703,123.831055 C294.074219,123.831055 277.916016,101.740234 264.499023,87.3535156 C281.359375,111.444336 281.505859,114.911133 290.976562,126.371094 Z" id="Path-Copy-2" fill="url(#linearGradient-9)"></path>
        <path d="M271.001953,97.1181641 C287.666016,119.585938 292.453125,126.960938 303.249023,137.285156 C314.044922,147.609375 322.415039,152.929687 332.875,152.929687 C343.334961,152.929687 345.116566,116.205525 339.580078,107.658203 C335.088867,114.324219 332.751953,122.823242 315.368164,125.902344 C297.984375,128.981445 282.65625,110.496094 271.001953,97.1181641 Z" id="Path-2" fill="url(#linearGradient-10)"></path>
        <path d="M188.289063,86.1689453 C181.856445,88.7675781 179.780273,89.6416016 174.994141,95.0253906 C170.208008,100.40918 163.956055,109.808105 159.033203,119.510742 C154.110352,129.213379 144.584961,147.382813 141.138672,153.595703 C137.692383,159.808594 132.302734,168.905273 128.854492,172.257812 C138.975586,156 141.956055,147.128906 148.487305,134.592773 C155.018555,122.056641 161.015625,110.504883 166.339844,103.5 C171.664063,96.4951172 180.9375,87.8720703 188.289063,86.1689453 Z" id="Path-4" fill="url(#linearGradient-11)"></path>
    </g>
</svg>